<mxfile host="65bd71144e">
    <diagram id="8Igaa7IOScrh8oGPAlYF" name="Page-1">
        <mxGraphModel dx="1216" dy="491" grid="1" gridSize="10" guides="1" tooltips="1" connect="1" arrows="1" fold="1" page="1" pageScale="1" pageWidth="850" pageHeight="1100" math="0" shadow="0">
            <root>
                <mxCell id="0"/>
                <mxCell id="1" parent="0"/>
                <mxCell id="27" style="edgeStyle=none;html=1;entryX=0.007;entryY=0.1;entryDx=0;entryDy=0;entryPerimeter=0;fillColor=#008a00;strokeColor=#005700;strokeWidth=4;" parent="1" source="2" target="13" edge="1">
                    <mxGeometry relative="1" as="geometry">
                        <mxPoint x="210" y="365" as="targetPoint"/>
                    </mxGeometry>
                </mxCell>
                <mxCell id="2" value="Â ConfigParser" style="swimlane;fontStyle=1;align=center;verticalAlign=top;childLayout=stackLayout;horizontal=1;startSize=26;horizontalStack=0;resizeParent=1;resizeParentMax=0;resizeLast=0;collapsible=1;marginBottom=0;" parent="1" vertex="1">
                    <mxGeometry x="40" y="300" width="120" height="104" as="geometry"/>
                </mxCell>
                <mxCell id="4" value="" style="line;strokeWidth=1;fillColor=none;align=left;verticalAlign=middle;spacingTop=-1;spacingLeft=3;spacingRight=3;rotatable=0;labelPosition=right;points=[];portConstraint=eastwest;strokeColor=inherit;" parent="2" vertex="1">
                    <mxGeometry y="26" width="120" height="8" as="geometry"/>
                </mxCell>
                <mxCell id="5" value="parse_config(ec)&#10;&#10;validate_config(ec)" style="text;strokeColor=none;fillColor=none;align=left;verticalAlign=top;spacingLeft=4;spacingRight=4;overflow=hidden;rotatable=0;points=[[0,0.5],[1,0.5]];portConstraint=eastwest;" parent="2" vertex="1">
                    <mxGeometry y="34" width="120" height="70" as="geometry"/>
                </mxCell>
                <mxCell id="26" style="edgeStyle=none;html=1;entryX=1.008;entryY=0.029;entryDx=0;entryDy=0;entryPerimeter=0;" parent="2" source="2" target="5" edge="1">
                    <mxGeometry relative="1" as="geometry"/>
                </mxCell>
                <mxCell id="117" style="edgeStyle=none;html=1;entryX=0.016;entryY=0.225;entryDx=0;entryDy=0;entryPerimeter=0;strokeColor=#005700;fontSize=24;fillColor=#008a00;strokeWidth=4;" parent="1" source="10" target="110" edge="1">
                    <mxGeometry relative="1" as="geometry"/>
                </mxCell>
                <mxCell id="10" value="Validator" style="swimlane;fontStyle=1;align=center;verticalAlign=top;childLayout=stackLayout;horizontal=1;startSize=26;horizontalStack=0;resizeParent=1;resizeParentMax=0;resizeLast=0;collapsible=1;marginBottom=0;" parent="1" vertex="1">
                    <mxGeometry x="220" y="310" width="140" height="84" as="geometry"/>
                </mxCell>
                <mxCell id="12" value="" style="line;strokeWidth=1;fillColor=none;align=left;verticalAlign=middle;spacingTop=-1;spacingLeft=3;spacingRight=3;rotatable=0;labelPosition=right;points=[];portConstraint=eastwest;strokeColor=inherit;" parent="10" vertex="1">
                    <mxGeometry y="26" width="140" height="8" as="geometry"/>
                </mxCell>
                <mxCell id="13" value="valid_run_check(ec)&#10;dependency_check(ec)&#10;dq_checks(ec) future&#10;" style="text;strokeColor=none;fillColor=none;align=left;verticalAlign=top;spacingLeft=4;spacingRight=4;overflow=hidden;rotatable=0;points=[[0,0.5],[1,0.5]];portConstraint=eastwest;" parent="10" vertex="1">
                    <mxGeometry y="34" width="140" height="50" as="geometry"/>
                </mxCell>
                <mxCell id="79" style="edgeStyle=none;html=1;fillColor=#008a00;strokeColor=#005700;strokeWidth=4;entryX=0.355;entryY=0;entryDx=0;entryDy=0;entryPerimeter=0;" parent="1" source="14" target="18" edge="1">
                    <mxGeometry relative="1" as="geometry">
                        <mxPoint x="670" y="480" as="targetPoint"/>
                    </mxGeometry>
                </mxCell>
                <mxCell id="14" value="Transformer" style="swimlane;fontStyle=1;align=center;verticalAlign=top;childLayout=stackLayout;horizontal=1;startSize=26;horizontalStack=0;resizeParent=1;resizeParentMax=0;resizeLast=0;collapsible=1;marginBottom=0;" parent="1" vertex="1">
                    <mxGeometry x="620" y="310" width="170" height="94" as="geometry"/>
                </mxCell>
                <mxCell id="16" value="" style="line;strokeWidth=1;fillColor=none;align=left;verticalAlign=middle;spacingTop=-1;spacingLeft=3;spacingRight=3;rotatable=0;labelPosition=right;points=[];portConstraint=eastwest;strokeColor=inherit;" parent="14" vertex="1">
                    <mxGeometry y="26" width="170" height="8" as="geometry"/>
                </mxCell>
                <mxCell id="17" value="generic_tranformation(ec) future&#10;specific_tranformation(ec)" style="text;strokeColor=none;fillColor=none;align=left;verticalAlign=top;spacingLeft=4;spacingRight=4;overflow=hidden;rotatable=0;points=[[0,0.5],[1,0.5]];portConstraint=eastwest;" parent="14" vertex="1">
                    <mxGeometry y="34" width="170" height="60" as="geometry"/>
                </mxCell>
                <mxCell id="18" value="Loader" style="swimlane;fontStyle=1;align=center;verticalAlign=top;childLayout=stackLayout;horizontal=1;startSize=26;horizontalStack=0;resizeParent=1;resizeParentMax=0;resizeLast=0;collapsible=1;marginBottom=0;" parent="1" vertex="1">
                    <mxGeometry x="660" y="490" width="110" height="94" as="geometry"/>
                </mxCell>
                <mxCell id="20" value="" style="line;strokeWidth=1;fillColor=none;align=left;verticalAlign=middle;spacingTop=-1;spacingLeft=3;spacingRight=3;rotatable=0;labelPosition=right;points=[];portConstraint=eastwest;strokeColor=inherit;" parent="18" vertex="1">
                    <mxGeometry y="26" width="110" height="8" as="geometry"/>
                </mxCell>
                <mxCell id="21" value="load_to_unity(ec)" style="text;strokeColor=none;fillColor=none;align=left;verticalAlign=top;spacingLeft=4;spacingRight=4;overflow=hidden;rotatable=0;points=[[0,0.5],[1,0.5]];portConstraint=eastwest;" parent="18" vertex="1">
                    <mxGeometry y="34" width="110" height="60" as="geometry"/>
                </mxCell>
                <mxCell id="22" value="Logger" style="swimlane;fontStyle=1;align=center;verticalAlign=top;childLayout=stackLayout;horizontal=1;startSize=26;horizontalStack=0;resizeParent=1;resizeParentMax=0;resizeLast=0;collapsible=1;marginBottom=0;" parent="1" vertex="1">
                    <mxGeometry x="500" y="490" width="70" height="94" as="geometry"/>
                </mxCell>
                <mxCell id="24" value="" style="line;strokeWidth=1;fillColor=none;align=left;verticalAlign=middle;spacingTop=-1;spacingLeft=3;spacingRight=3;rotatable=0;labelPosition=right;points=[];portConstraint=eastwest;strokeColor=inherit;" parent="22" vertex="1">
                    <mxGeometry y="26" width="70" height="8" as="geometry"/>
                </mxCell>
                <mxCell id="25" value="logs(ec)&#10;cleanup()" style="text;strokeColor=none;fillColor=none;align=left;verticalAlign=top;spacingLeft=4;spacingRight=4;overflow=hidden;rotatable=0;points=[[0,0.5],[1,0.5]];portConstraint=eastwest;" parent="22" vertex="1">
                    <mxGeometry y="34" width="70" height="60" as="geometry"/>
                </mxCell>
                <mxCell id="82" style="edgeStyle=none;html=1;entryX=1.043;entryY=0.183;entryDx=0;entryDy=0;fillColor=#008a00;strokeColor=#005700;strokeWidth=4;exitX=-0.027;exitY=0.183;exitDx=0;exitDy=0;exitPerimeter=0;entryPerimeter=0;" parent="1" source="21" target="25" edge="1">
                    <mxGeometry relative="1" as="geometry"/>
                </mxCell>
                <mxCell id="106" value="Execution Context EC(a dictionary that hold all the context info for a particular execution )&lt;br&gt;Ex:Config_parser reads config and puts it back in ec dictionary, extracts reads config and puts the &lt;br&gt;source df back in ec and subsequently other reads.&amp;nbsp; &amp;nbsp;&amp;nbsp;" style="strokeWidth=2;shadow=0;align=center;html=1;shape=mxgraph.mockup.text.textBox;align=left;fontSize=17;spacingLeft=4;spacingTop=-3;mainText=;" parent="1" vertex="1">
                    <mxGeometry x="30" y="130" width="820" height="80" as="geometry"/>
                </mxCell>
                <mxCell id="118" style="edgeStyle=none;html=1;entryX=0;entryY=0.133;entryDx=0;entryDy=0;entryPerimeter=0;strokeColor=#005700;fontSize=24;fillColor=#008a00;strokeWidth=4;" parent="1" source="107" target="17" edge="1">
                    <mxGeometry relative="1" as="geometry"/>
                </mxCell>
                <mxCell id="154" style="edgeStyle=none;html=1;strokeColor=#8fd6db;strokeWidth=4;fontSize=13;dashed=1;dashPattern=1 1;" parent="1" source="107" target="150" edge="1">
                    <mxGeometry relative="1" as="geometry">
                        <Array as="points">
                            <mxPoint x="600" y="270"/>
                        </Array>
                    </mxGeometry>
                </mxCell>
                <mxCell id="107" value="Extracts" style="swimlane;fontStyle=1;align=center;verticalAlign=top;childLayout=stackLayout;horizontal=1;startSize=26;horizontalStack=0;resizeParent=1;resizeParentMax=0;resizeLast=0;collapsible=1;marginBottom=0;" parent="1" vertex="1">
                    <mxGeometry x="420" y="310" width="125" height="74" as="geometry">
                        <mxRectangle x="200" y="300" width="90" height="30" as="alternateBounds"/>
                    </mxGeometry>
                </mxCell>
                <mxCell id="109" value="" style="line;strokeWidth=1;fillColor=none;align=left;verticalAlign=middle;spacingTop=-1;spacingLeft=3;spacingRight=3;rotatable=0;labelPosition=right;points=[];portConstraint=eastwest;strokeColor=inherit;" parent="107" vertex="1">
                    <mxGeometry y="26" width="125" height="8" as="geometry"/>
                </mxCell>
                <mxCell id="110" value="db_extract_return(ec)&#10;&#10;" style="text;strokeColor=none;fillColor=none;align=left;verticalAlign=top;spacingLeft=4;spacingRight=4;overflow=hidden;rotatable=0;points=[[0,0.5],[1,0.5]];portConstraint=eastwest;" parent="107" vertex="1">
                    <mxGeometry y="34" width="125" height="40" as="geometry"/>
                </mxCell>
                <mxCell id="119" value="&lt;font style=&quot;font-size: 10px;&quot;&gt;Class&lt;/font&gt;" style="text;html=1;strokeColor=none;fillColor=none;align=center;verticalAlign=middle;whiteSpace=wrap;rounded=0;strokeWidth=4;fontSize=24;" parent="1" vertex="1">
                    <mxGeometry x="40" y="270" width="120" height="30" as="geometry"/>
                </mxCell>
                <mxCell id="120" value="&lt;font style=&quot;font-size: 10px;&quot;&gt;Class&lt;/font&gt;" style="text;html=1;strokeColor=none;fillColor=none;align=center;verticalAlign=middle;whiteSpace=wrap;rounded=0;strokeWidth=4;fontSize=24;" parent="1" vertex="1">
                    <mxGeometry x="422.5" y="280" width="120" height="30" as="geometry"/>
                </mxCell>
                <mxCell id="121" value="&lt;font style=&quot;font-size: 10px;&quot;&gt;Class&lt;/font&gt;" style="text;html=1;strokeColor=none;fillColor=none;align=center;verticalAlign=middle;whiteSpace=wrap;rounded=0;strokeWidth=4;fontSize=24;" parent="1" vertex="1">
                    <mxGeometry x="230" y="280" width="120" height="30" as="geometry"/>
                </mxCell>
                <mxCell id="122" value="&lt;font style=&quot;font-size: 10px;&quot;&gt;Class&lt;/font&gt;" style="text;html=1;strokeColor=none;fillColor=none;align=center;verticalAlign=middle;whiteSpace=wrap;rounded=0;strokeWidth=4;fontSize=24;" parent="1" vertex="1">
                    <mxGeometry x="640" y="280" width="120" height="30" as="geometry"/>
                </mxCell>
                <mxCell id="123" value="&lt;font style=&quot;font-size: 10px;&quot;&gt;Class&lt;/font&gt;" style="text;html=1;strokeColor=none;fillColor=none;align=center;verticalAlign=middle;whiteSpace=wrap;rounded=0;strokeWidth=4;fontSize=24;" parent="1" vertex="1">
                    <mxGeometry x="655" y="460" width="120" height="30" as="geometry"/>
                </mxCell>
                <mxCell id="124" value="&lt;font style=&quot;font-size: 10px;&quot;&gt;Class&lt;/font&gt;" style="text;html=1;strokeColor=none;fillColor=none;align=center;verticalAlign=middle;whiteSpace=wrap;rounded=0;strokeWidth=4;fontSize=24;" parent="1" vertex="1">
                    <mxGeometry x="475" y="460" width="120" height="30" as="geometry"/>
                </mxCell>
                <mxCell id="125" value="&lt;font color=&quot;#f7f2f2&quot; style=&quot;font-size: 14px;&quot;&gt;Adding a new table to the catalog&amp;nbsp;&lt;/font&gt;" style="swimlane;whiteSpace=wrap;html=1;strokeWidth=4;fontSize=10;fillColor=#584b68;" parent="1" vertex="1">
                    <mxGeometry x="35" y="670" width="810" height="390" as="geometry">
                        <mxRectangle x="35" y="710" width="270" height="30" as="alternateBounds"/>
                    </mxGeometry>
                </mxCell>
                <mxCell id="126" value="Data Engineer" style="shape=umlActor;verticalLabelPosition=bottom;verticalAlign=top;html=1;outlineConnect=0;strokeWidth=4;fontSize=14;fillColor=#584b68;" parent="125" vertex="1">
                    <mxGeometry x="285" y="130" width="30" height="60" as="geometry"/>
                </mxCell>
                <mxCell id="131" value="" style="endArrow=classic;html=1;strokeColor=#8fd6db;strokeWidth=4;fontSize=14;" parent="125" edge="1">
                    <mxGeometry relative="1" as="geometry">
                        <mxPoint x="305" y="159.5" as="sourcePoint"/>
                        <mxPoint x="590" y="159.5" as="targetPoint"/>
                    </mxGeometry>
                </mxCell>
                <mxCell id="132" value="Creates two files&amp;nbsp;" style="edgeLabel;resizable=0;html=1;align=center;verticalAlign=middle;strokeWidth=4;fontSize=14;fillColor=#584b68;" parent="131" connectable="0" vertex="1">
                    <mxGeometry relative="1" as="geometry"/>
                </mxCell>
                <mxCell id="133" value="&lt;font color=&quot;#fdf6f6&quot;&gt;table_config.json&lt;/font&gt;" style="shape=note;whiteSpace=wrap;html=1;backgroundOutline=1;darkOpacity=0.05;strokeWidth=1;fontSize=14;fillColor=#584b68;size=20;" parent="125" vertex="1">
                    <mxGeometry x="605" y="90" width="125" height="60" as="geometry"/>
                </mxCell>
                <mxCell id="134" value="&lt;font color=&quot;#fffafa&quot;&gt;table_transformation.py&lt;/font&gt;" style="shape=note;whiteSpace=wrap;html=1;backgroundOutline=1;darkOpacity=0.05;strokeWidth=1;fontSize=14;fillColor=#584b68;size=17;" parent="125" vertex="1">
                    <mxGeometry x="605" y="180" width="175" height="50" as="geometry"/>
                </mxCell>
                <mxCell id="135" value="" style="endArrow=classic;html=1;strokeColor=#8fd6db;strokeWidth=4;fontSize=14;" parent="125" edge="1">
                    <mxGeometry relative="1" as="geometry">
                        <mxPoint x="299.5" y="210" as="sourcePoint"/>
                        <mxPoint x="299.5" y="310" as="targetPoint"/>
                    </mxGeometry>
                </mxCell>
                <mxCell id="136" value="Adds entry in the&lt;br&gt;&amp;nbsp;dependency table" style="edgeLabel;resizable=0;html=1;align=center;verticalAlign=middle;strokeWidth=4;fontSize=14;fillColor=#584b68;" parent="135" connectable="0" vertex="1">
                    <mxGeometry relative="1" as="geometry"/>
                </mxCell>
                <mxCell id="137" value="" style="shape=datastore;whiteSpace=wrap;html=1;strokeWidth=1;fontSize=14;fillColor=#584b68;" parent="125" vertex="1">
                    <mxGeometry x="267.5" y="320" width="65" height="40" as="geometry"/>
                </mxCell>
                <mxCell id="142" style="edgeStyle=none;html=1;strokeColor=#8fd6db;strokeWidth=4;fontSize=14;" parent="125" source="138" edge="1">
                    <mxGeometry relative="1" as="geometry">
                        <mxPoint x="295" y="120" as="targetPoint"/>
                        <Array as="points">
                            <mxPoint x="295" y="92"/>
                        </Array>
                    </mxGeometry>
                </mxCell>
                <mxCell id="138" value="&lt;font style=&quot;font-size: 13px;&quot;&gt;Analyse Requirements&lt;/font&gt;" style="swimlane;fontStyle=0;childLayout=stackLayout;horizontal=1;startSize=26;fillColor=none;horizontalStack=0;resizeParent=1;resizeParentMax=0;resizeLast=0;collapsible=1;marginBottom=0;html=1;strokeWidth=1;fontSize=14;" parent="125" vertex="1">
                    <mxGeometry x="5" y="40" width="205" height="104" as="geometry"/>
                </mxCell>
                <mxCell id="139" value="&lt;font style=&quot;font-size: 12px;&quot;&gt;Analyze section mappings and Logic&lt;/font&gt;" style="text;strokeColor=none;fillColor=none;align=left;verticalAlign=top;spacingLeft=4;spacingRight=4;overflow=hidden;rotatable=0;points=[[0,0.5],[1,0.5]];portConstraint=eastwest;whiteSpace=wrap;html=1;strokeWidth=4;fontSize=14;" parent="138" vertex="1">
                    <mxGeometry y="26" width="205" height="26" as="geometry"/>
                </mxCell>
                <mxCell id="140" value="&lt;font style=&quot;font-size: 12px;&quot;&gt;Map to Unity Gemini&lt;/font&gt;" style="text;strokeColor=none;fillColor=none;align=left;verticalAlign=top;spacingLeft=4;spacingRight=4;overflow=hidden;rotatable=0;points=[[0,0.5],[1,0.5]];portConstraint=eastwest;whiteSpace=wrap;html=1;strokeWidth=4;fontSize=14;" parent="138" vertex="1">
                    <mxGeometry y="52" width="205" height="26" as="geometry"/>
                </mxCell>
                <mxCell id="141" value="&lt;font style=&quot;font-size: 12px;&quot;&gt;Write the logic&lt;/font&gt;" style="text;strokeColor=none;fillColor=none;align=left;verticalAlign=top;spacingLeft=4;spacingRight=4;overflow=hidden;rotatable=0;points=[[0,0.5],[1,0.5]];portConstraint=eastwest;whiteSpace=wrap;html=1;strokeWidth=4;fontSize=14;" parent="138" vertex="1">
                    <mxGeometry y="78" width="205" height="26" as="geometry"/>
                </mxCell>
                <mxCell id="144" value="&lt;font color=&quot;#f2f2f2&quot;&gt;Ec&lt;/font&gt;" style="swimlane;fontStyle=0;childLayout=stackLayout;horizontal=1;startSize=30;horizontalStack=0;resizeParent=1;resizeParentMax=0;resizeLast=0;collapsible=1;marginBottom=0;whiteSpace=wrap;html=1;strokeWidth=1;fontSize=13;fillColor=#645676;" parent="1" vertex="1">
                    <mxGeometry x="15" y="460" width="170" height="60" as="geometry"/>
                </mxCell>
                <mxCell id="145" value="config_table : dict[]" style="text;strokeColor=none;fillColor=none;align=left;verticalAlign=middle;spacingLeft=4;spacingRight=4;overflow=hidden;points=[[0,0.5],[1,0.5]];portConstraint=eastwest;rotatable=0;whiteSpace=wrap;html=1;strokeWidth=1;fontSize=13;" parent="144" vertex="1">
                    <mxGeometry y="30" width="170" height="30" as="geometry"/>
                </mxCell>
                <mxCell id="150" value="&lt;font color=&quot;#f8f7f7&quot;&gt;EC&lt;/font&gt;" style="swimlane;fontStyle=0;childLayout=stackLayout;horizontal=1;startSize=30;horizontalStack=0;resizeParent=1;resizeParentMax=0;resizeLast=0;collapsible=1;marginBottom=0;whiteSpace=wrap;html=1;strokeWidth=1;fontSize=13;fillColor=#584b68;" parent="1" vertex="1">
                    <mxGeometry x="930" y="225" width="140" height="90" as="geometry"/>
                </mxCell>
                <mxCell id="151" value="config_table" style="text;strokeColor=none;fillColor=none;align=left;verticalAlign=middle;spacingLeft=4;spacingRight=4;overflow=hidden;points=[[0,0.5],[1,0.5]];portConstraint=eastwest;rotatable=0;whiteSpace=wrap;html=1;strokeWidth=1;fontSize=13;" parent="150" vertex="1">
                    <mxGeometry y="30" width="140" height="30" as="geometry"/>
                </mxCell>
                <mxCell id="152" value="extracts : [&quot;table1&quot;, &quot;table2&quot;]" style="text;strokeColor=none;fillColor=none;align=left;verticalAlign=middle;spacingLeft=4;spacingRight=4;overflow=hidden;points=[[0,0.5],[1,0.5]];portConstraint=eastwest;rotatable=0;whiteSpace=wrap;html=1;strokeWidth=1;fontSize=13;" parent="150" vertex="1">
                    <mxGeometry y="60" width="140" height="30" as="geometry"/>
                </mxCell>
                <mxCell id="155" value="&lt;font color=&quot;#ffffff&quot;&gt;EC&lt;/font&gt;" style="swimlane;fontStyle=0;childLayout=stackLayout;horizontal=1;startSize=30;horizontalStack=0;resizeParent=1;resizeParentMax=0;resizeLast=0;collapsible=1;marginBottom=0;whiteSpace=wrap;html=1;strokeWidth=1;fontSize=13;fillColor=#584b68;" parent="1" vertex="1">
                    <mxGeometry x="920" y="355" width="140" height="120" as="geometry"/>
                </mxCell>
                <mxCell id="156" value="Item 1" style="text;strokeColor=none;fillColor=none;align=left;verticalAlign=middle;spacingLeft=4;spacingRight=4;overflow=hidden;points=[[0,0.5],[1,0.5]];portConstraint=eastwest;rotatable=0;whiteSpace=wrap;html=1;strokeWidth=1;fontSize=13;" parent="155" vertex="1">
                    <mxGeometry y="30" width="140" height="30" as="geometry"/>
                </mxCell>
                <mxCell id="157" value="Item 2" style="text;strokeColor=none;fillColor=none;align=left;verticalAlign=middle;spacingLeft=4;spacingRight=4;overflow=hidden;points=[[0,0.5],[1,0.5]];portConstraint=eastwest;rotatable=0;whiteSpace=wrap;html=1;strokeWidth=1;fontSize=13;" parent="155" vertex="1">
                    <mxGeometry y="60" width="140" height="30" as="geometry"/>
                </mxCell>
                <mxCell id="158" value="transforms :&amp;nbsp;" style="text;strokeColor=none;fillColor=none;align=left;verticalAlign=middle;spacingLeft=4;spacingRight=4;overflow=hidden;points=[[0,0.5],[1,0.5]];portConstraint=eastwest;rotatable=0;whiteSpace=wrap;html=1;strokeWidth=1;fontSize=13;" parent="155" vertex="1">
                    <mxGeometry y="90" width="140" height="30" as="geometry"/>
                </mxCell>
                <mxCell id="159" style="edgeStyle=none;html=1;dashed=1;dashPattern=1 1;strokeColor=#8fd6db;strokeWidth=4;fontSize=13;" parent="1" source="17" target="156" edge="1">
                    <mxGeometry relative="1" as="geometry"/>
                </mxCell>
                <mxCell id="162" style="edgeStyle=none;html=1;dashed=1;dashPattern=1 1;strokeColor=#8fd6db;strokeWidth=4;fontSize=13;" parent="1" source="5" target="144" edge="1">
                    <mxGeometry relative="1" as="geometry"/>
                </mxCell>
            </root>
        </mxGraphModel>
    </diagram>
</mxfile>